<svg version="1.1" id="digital-marketing" xmlns="http://www.w3.org/2000/svg" xmlns:xlink="http://www.w3.org/1999/xlink" x="0px"
	 y="0px" width="120px" height="120px" viewBox="0 0 120 120" enable-background="new 0 0 120 120" xml:space="preserve">
<path fill="none" stroke="#ffffff" stroke-width="1.5" stroke-miterlimit="10" d="M101.368,99.285c0,0.942-0.763,1.705-1.705,1.705
	H18.594c-0.942,0-1.706-0.763-1.706-1.705V44.436c0-0.941,0.764-1.705,1.706-1.705h81.069c0.942,0,1.705,0.764,1.705,1.705V99.285z"
	/>
<path fill="none" stroke="#ffffff" stroke-width="1.5" stroke-miterlimit="10" d="M101.368,109.655c0,0.941-0.763,1.705-1.705,1.705
	H18.595c-0.942,0-1.706-0.764-1.706-1.705v-4.547c0-0.942,0.764-1.704,1.706-1.704h81.068c0.942,0,1.705,0.762,1.705,1.704V109.655z
	"/>
<path fill="#ffffff" d="M70.638,106.529c0,0.471-0.382,0.853-0.853,0.853H48.473c-0.471,0-0.853-0.382-0.853-0.853l0,0
	c0-0.471,0.382-0.854,0.853-0.854h21.313C70.256,105.676,70.638,106.059,70.638,106.529L70.638,106.529z"/>
<path fill="none" stroke="#ffffff" stroke-width="1.5" stroke-miterlimit="10" d="M109.572,57.876v-4.31 M109.572,52.335v-2.771
	 M109.572,48.641V45.3"/>
<path fill="#ffffff" d="M112.035,60.34c0,1.361-1.103,2.463-2.463,2.463c-1.359,0-2.463-1.102-2.463-2.463
	c0-1.359,1.104-2.462,2.463-2.462C110.933,57.878,112.035,58.98,112.035,60.34z M109.667,39.086l-3.725,5.297h7.26L109.667,39.086z"
	/>
<path fill="none" stroke="#ffffff" stroke-width="1.5" stroke-miterlimit="10" d="M72.368,37.849l-2.605-1.407 M69.018,36.039
	l-1.676-0.905 M64.764,33.741l2.02,1.091"/>
<path fill="#ffffff" d="M74.662,37.166c0.822,0.445,1.129,1.471,0.685,2.293c-0.443,0.822-1.471,1.129-2.294,0.685
	c-0.822-0.444-1.128-1.472-0.685-2.294C72.813,37.027,73.84,36.721,74.662,37.166z M61.037,31.654l1.986,3.982l2.371-4.39
	L61.037,31.654z"/>
<path fill="none" stroke="#ffffff" stroke-width="1.5" stroke-miterlimit="10" d="M101.368,93.296H17.525 M17.525,49.398h83.843"/>
<path fill="#ffffff" d="M30.837,57.42c0,1.611-1.305,2.917-2.917,2.917c-1.611,0-2.917-1.306-2.917-2.917
	c0-1.612,1.306-2.917,2.917-2.917C29.532,54.503,30.837,55.809,30.837,57.42z M27.919,71.86c-1.611,0-2.917,1.306-2.917,2.918
	c0,1.611,1.306,2.917,2.917,2.917c1.612,0,2.917-1.306,2.917-2.917C30.837,73.166,29.532,71.86,27.919,71.86z"/>
<path fill="none" stroke="#ffffff" stroke-miterlimit="10" d="M32.987,65.251c0,1.017-0.825,1.842-1.842,1.842h-6.142
	c-1.017,0-1.842-0.825-1.842-1.842V62.49c0-1.018,0.825-1.842,1.842-1.842h6.142c1.017,0,1.842,0.824,1.842,1.842V65.251z
	 M32.987,79.848c0-1.017-0.825-1.842-1.842-1.842h-6.142c-1.017,0-1.842,0.825-1.842,1.842v2.762c0,1.017,0.825,1.842,1.842,1.842
	h6.142c1.017,0,1.842-0.825,1.842-1.842V79.848z"/>
<path fill="none" stroke="#ffffff" stroke-miterlimit="10" d="M62.783,59.607H38.623 M62.783,62.85H38.623 M62.783,76.385H38.623
	 M38.623,79.627h24.161"/>
<path fill="none" stroke="#ffffff" stroke-miterlimit="10" d="M96.422,33.991c0,0-0.769-11.261,11.021-11.021 M107.854,25.86
	c-9.137-0.187-8.541,8.542-8.541,8.542 M108.535,28.78c-6.743-0.137-6.304,6.303-6.304,6.303"/>
<polygon fill="#ffffff" points="105.774,9.353 105.774,7.864 104.248,7.864 104.7,8.964 "/>
<polygon fill="#ffffff" points="98.104,7.864 96.672,7.864 96.672,9.422 97.692,9 "/>
<polygon fill="#ffffff" points="104.49,16.968 105.774,16.968 105.774,15.512 104.885,15.879 "/>
<polygon fill="#ffffff" points="96.672,15.739 96.672,16.968 98.157,16.968 97.822,16.155 "/>
<polygon fill="#ffffff" points="106.575,13.501 107.66,12.417 106.542,11.298 106.133,12.43 "/>
<polygon fill="#ffffff" points="95.842,11.36 94.786,12.417 96.013,13.643 96.373,12.647 "/>
<polygon fill="#ffffff" points="100.188,17.819 101.223,18.854 102.3,17.776 101.229,17.389 "/>
<polygon fill="#ffffff" points="102.33,7.085 101.223,5.979 99.956,7.246 101.013,7.628 "/>
<polygon fill="#ffffff" points="106.575,13.501 106.133,12.43 104.885,15.879 105.774,15.512 107.167,14.937 "/>
<polygon fill="#ffffff" points="97.692,9 96.672,9.422 95.278,9.998 95.842,11.36 96.373,12.647 "/>
<polygon fill="#ffffff" points="104.7,8.964 104.248,7.864 103.693,6.522 102.33,7.085 101.013,7.628 "/>
<polygon fill="#ffffff" points="97.822,16.155 98.157,16.968 98.753,18.412 100.188,17.819 101.229,17.389 "/>
<path fill="#ffffff" d="M106.133,12.43l0.409-1.131l0.533-1.476l-1.301-0.47L104.7,8.964l-3.688-1.335l-1.057-0.382l-1.44-0.521
	l-0.412,1.14L97.692,9l-1.319,3.646l-0.36,0.996l-0.596,1.643l1.255,0.453l1.15,0.417l3.407,1.233l1.07,0.388l1.678,0.607
	l0.513-1.415l0.395-1.089L106.133,12.43z M98.141,12.481c0-1.723,1.396-3.12,3.119-3.12c1.724,0,3.12,1.397,3.12,3.12
	c0,1.724-1.396,3.121-3.12,3.121C99.537,15.602,98.141,14.205,98.141,12.481z"/>
<polygon fill="#ffffff" points="64.456,24.167 64.456,23.435 63.705,23.435 63.928,23.976 "/>
<polygon fill="#ffffff" points="60.681,23.435 59.976,23.435 59.976,24.202 60.478,23.994 "/>
<polygon fill="#ffffff" points="63.824,27.916 64.456,27.916 64.456,27.199 64.02,27.38 "/>
<polygon fill="#ffffff" points="59.976,27.311 59.976,27.916 60.707,27.916 60.542,27.515 "/>
<polygon fill="#ffffff" points="64.851,26.209 65.385,25.675 64.835,25.125 64.634,25.682 "/>
<polygon fill="#ffffff" points="59.567,25.156 59.048,25.675 59.651,26.279 59.828,25.789 "/>
<polygon fill="#ffffff" points="61.707,28.334 62.216,28.844 62.746,28.313 62.219,28.123 "/>
<polygon fill="#ffffff" points="62.76,23.051 62.216,22.507 61.592,23.13 62.113,23.319 "/>
<polygon fill="#ffffff" points="64.851,26.209 64.634,25.682 64.02,27.38 64.456,27.199 65.142,26.916 "/>
<polygon fill="#ffffff" points="60.478,23.994 59.976,24.202 59.29,24.485 59.567,25.156 59.828,25.789 "/>
<polygon fill="#ffffff" points="63.928,23.976 63.705,23.435 63.433,22.774 62.76,23.051 62.113,23.319 "/>
<polygon fill="#ffffff" points="60.542,27.515 60.707,27.916 61,28.626 61.707,28.334 62.219,28.123 "/>
<path fill="#ffffff" d="M64.634,25.682l0.201-0.557l0.262-0.726l-0.641-0.232l-0.528-0.191l-1.814-0.657l-0.521-0.188l-0.708-0.256
	l-0.203,0.561l-0.203,0.559l-0.65,1.795l-0.177,0.49l-0.292,0.809l0.617,0.223l0.566,0.205l1.676,0.607l0.527,0.191l0.826,0.299
	l0.252-0.696l0.195-0.536L64.634,25.682z M60.699,25.708c0-0.848,0.687-1.536,1.536-1.536s1.535,0.688,1.535,1.536
	c0,0.848-0.687,1.536-1.535,1.536S60.699,26.555,60.699,25.708z"/>
<path fill="none" stroke="#ffffff" stroke-miterlimit="10" d="M89.903,37.166l-5.581-3.277c-0.278,0.049-0.559,0.088-0.846,0.108
	c-0.195,0.014-0.39,0.02-0.588,0.02c-4.621,0-8.367-3.745-8.367-8.367c0-4.621,3.746-8.366,8.367-8.366
	c4.62,0,8.365,3.746,8.365,8.366c0,2.613-1.197,4.947-3.073,6.481c-0.211,0.173-0.435,0.332-0.663,0.483L89.903,37.166z
	 M78.096,22.966h9.528 M78.124,25.361h9.528 M78.124,27.757h9.528"/>
<path fill="none" stroke="#ffffff" stroke-miterlimit="10" d="M91.444,12.993l-14.075-2.175l0.875-5.659l14.074,2.175L91.444,12.993
	z"/>
<path fill="none" stroke="#ffffff" stroke-miterlimit="10" d="M77.369,10.818l-4.831-3.594l5.706-2.065"/>
<path fill="none" stroke="#ffffff" stroke-width="1.5" stroke-miterlimit="10" d="M73.715,7.406l-1.971-0.305"/>
<path fill="none" stroke="#ffffff" stroke-miterlimit="10" d="M89.136,10.864l-10.348-1.6"/>
<path fill="none" stroke="#ffffff" stroke-miterlimit="10" d="M57.417,29.471L40.65,39.622l-5.084-8.398l-0.263-0.435l16.767-10.15
	L57.417,29.471z"/>
<path fill="none" stroke="#ffffff" stroke-miterlimit="10" d="M52.069,20.638l-5.323,9.976l-11.387,0.269"/>
<path fill="none" stroke="#ffffff" stroke-miterlimit="10" d="M40.581,39.397l4.667-8.748 M57.291,29.151l-9.886,0.234"/>
<path fill="none" stroke="#ffffff" stroke-miterlimit="10" d="M48.587,13.927c0,4.422-3.584,8.006-8.006,8.006
	s-8.006-3.584-8.006-8.006s3.584-8.006,8.006-8.006S48.587,9.505,48.587,13.927z M40.581,21.933V5.92 M39.996,5.92
	c0,0-8.702,7.118,0,16.013 M41.181,21.933c8.703-8.895,0-16.013,0-16.013 M35.061,8.141c4.679,3.052,8.66,1.598,11.05,0.005
	 M46.349,19.466c-2.489-1.51-6.418-2.65-10.979,0.53 M32.575,13.927h16.013"/>
<path fill="none" stroke="#ffffff" stroke-miterlimit="10" d="M27.055,26.686c1.404,1.405,1.404,3.683,0,5.087
	c-1.406,1.405-3.683,1.405-5.089,0c-1.405-1.405-1.405-3.683,0-5.087C23.372,25.28,25.648,25.28,27.055,26.686z"/>
<path fill="#ffffff" d="M29.48,33.026l-1.173,1.173l-2.134-2.135l1.172-1.172L29.48,33.026z"/>
<path fill="#ffffff" d="M33.51,36.22l-2.009,2.008l-3.711-3.71l2.009-2.008L33.51,36.22z"/>
<path fill="#ffffff" d="M80.161,78.919l-2.954-11.778l11.779,2.953L80.161,78.919z"/>
<path fill="#ffffff" d="M92.014,78.669l-3.277,3.277l-5.78-5.781l3.276-3.276L92.014,78.669z"/>
<path fill="none" stroke="#ffffff" stroke-miterlimit="10" d="M71.238,14.325c0,2.254-2.66,2.763-2.66,2.763h-9.216
	c0,0,0.13,0-2.969,0c-3.1,0-3.391-2.763-3.391-2.763c-0.454-4.117,4.21-4.076,4.21-4.076c1.55-4.091,6.368-3.848,6.368-3.848
	c6.036,0.215,6.101,5.651,6.101,5.651C71.108,12.788,71.238,14.325,71.238,14.325z M62.66,17.191h-0.916v2.416h0.916V17.191z
	 M63.447,19.607h-2.461v1.278h2.461V19.607z M57.26,20.202l9.754,0.043 M67.342,11.744c0.136-2.289-1.957-3.322-1.957-3.322"/>
<path fill="#ffffff" d="M22.284,8.34c0.736,0.736,0.736,1.932,0,2.668c-0.737,0.737-1.933,0.737-2.669,0
	c-0.737-0.737-0.736-1.932,0-2.669C20.352,7.604,21.547,7.604,22.284,8.34z M25.475,14.2c-0.736,0.737-0.736,1.932,0,2.669
	c0.737,0.736,1.932,0.736,2.668,0c0.737-0.737,0.737-1.932,0-2.668C27.408,13.463,26.212,13.463,25.475,14.2z M16.547,17.83
	c-0.737,0.737-0.737,1.931,0,2.668c0.737,0.737,1.931,0.737,2.668,0c0.737-0.736,0.737-1.931,0-2.668
	C18.479,17.093,17.284,17.093,16.547,17.83z"/>
<path fill="none" stroke="#ffffff" stroke-miterlimit="10" d="M20.316,11.468l-1.935,5.885 M18.673,18.99l7.207-3.178"/>
<path fill="#ffffff" d="M12.671,24.742l-5.903,3.002c-0.449,0.229-0.629,0.778-0.4,1.228l5.546,10.907
	c0.229,0.45,0.779,0.629,1.228,0.4l5.903-3.002c0.449-0.229,0.629-0.778,0.4-1.228l-5.546-10.907
	C13.671,24.692,13.121,24.513,12.671,24.742z M17.846,35.17l-5.598,2.846l-4.662-9.168l5.597-2.847L17.846,35.17z"/>
<path fill="#FFFFFF" d="M15.928,37.317c0.128,0.253,0.027,0.563-0.226,0.691c-0.252,0.128-0.562,0.028-0.69-0.225
	c-0.129-0.253-0.028-0.563,0.225-0.691S15.799,37.064,15.928,37.317z"/>
<path fill="#ffffff" d="M107.443,31.339c-1.465,0-2.651,1.187-2.651,2.651c0,1.464,1.187,2.651,2.651,2.651
	c1.463,0,2.65-1.187,2.65-2.651C110.094,32.526,108.906,31.339,107.443,31.339z M107.443,34.877c-0.49,0-0.887-0.397-0.887-0.887
	c0-0.49,0.396-0.887,0.887-0.887c0.489,0,0.887,0.397,0.887,0.887C108.33,34.48,107.933,34.877,107.443,34.877z"/>
</svg>
