<?xml version="1.0" encoding="utf-8"?>
<!-- Generator: Adobe Illustrator 16.0.0, SVG Export Plug-In . SVG Version: 6.00 Build 0)  -->
<!DOCTYPE svg PUBLIC "-//W3C//DTD SVG 1.1//EN" "http://www.w3.org/Graphics/SVG/1.1/DTD/svg11.dtd">
<svg version="1.1" xmlns="http://www.w3.org/2000/svg" xmlns:xlink="http://www.w3.org/1999/xlink" x="0px"
	 y="0px" width="120px" height="120px" viewBox="0 0 120 120" enable-background="new 0 0 120 120" xml:space="preserve">
<g id="e-commerce">

<path fill="none" stroke="#ffffff" stroke-width="1.5" stroke-miterlimit="10" d="M13.625,51.375V20.208c0-2.209,1.791-4,4-4H108
  c2.209,0,4,1.791,4,4V79.25c0,2.209-1.791,4-4,4H41.848"/>
<line fill="none" stroke="#ffffff" stroke-width="1.5" stroke-miterlimit="10" x1="112" y1="73.773" x2="42.574" y2="73.773"/>
<line fill="none" stroke="#ffffff" stroke-width="1.5" stroke-miterlimit="10" x1="13.625" y1="24" x2="112" y2="24"/>
<circle fill="#ffffff" cx="105.461" cy="77.875" r="1.625"/>
<circle fill="#ffffff" cx="25.586" cy="103" r="1.625"/>
<rect x="58.749" y="83.25" fill="none" stroke="#ffffff" stroke-width="1.5" stroke-miterlimit="10" width="8.375" height="9.125"/>
<rect x="49.086" y="92.375" fill="none" stroke="#ffffff" stroke-width="1.5" stroke-miterlimit="10" width="27.702" height="3.375"/>
<path fill="none" stroke="#ffffff" stroke-width="1.5" stroke-miterlimit="10" d="M12.961,106.375h25.25c2.209,0,4-1.791,4-4v-47
  c0-2.209-1.791-4-4-4h-25.25c-2.209,0-4,1.791-4,4v8.313V102.5C8.961,102.5,8.961,106.375,12.961,106.375z"/>
<line fill="none" stroke="#ffffff" stroke-width="1.5" stroke-linecap="round" stroke-miterlimit="10" x1="22.961" y1="54.125" x2="28.211" y2="54.125"/>
<line fill="none" stroke="#ffffff" stroke-width="1.5" stroke-miterlimit="10" x1="9.219" y1="57.125" x2="42.211" y2="57.125"/>
<line fill="none" stroke="#ffffff" stroke-width="1.5" stroke-miterlimit="10" x1="42.211" y1="99.125" x2="9.711" y2="99.125"/>
<polyline fill="none" stroke="#ffffff" stroke-width="1.5" stroke-miterlimit="10" points="72.378,54.125 54.461,54.125 47.711,36
  43.628,36 "/>
<line fill="none" stroke="#ffffff" stroke-width="1.5" stroke-miterlimit="10" x1="50.132" y1="42.5" x2="76.795" y2="42.5"/>
<line fill="none" stroke="#ffffff" stroke-width="1.5" stroke-miterlimit="10" x1="52.18" y1="48" x2="74.628" y2="48"/>
<circle fill="none" stroke="#ffffff" stroke-width="1.5" stroke-miterlimit="10" cx="58.665" cy="59.245" r="2.12"/>
<circle fill="none" stroke="#ffffff" stroke-width="1.5" stroke-miterlimit="10" cx="68.685" cy="59.245" r="2.12"/>
<polyline fill="none" stroke="#ffffff" stroke-width="1.5" stroke-miterlimit="10" points="31.235,80.861 22.431,80.861
  19.114,71.955 17.107,71.955 "/>
<line fill="none" stroke="#ffffff" stroke-width="1.5" stroke-miterlimit="10" x1="20.303" y1="75.149" x2="33.405" y2="75.149"/>
<line fill="none" stroke="#ffffff" stroke-width="1.5" stroke-miterlimit="10" x1="21.31" y1="77.852" x2="32.341" y2="77.852"/>
</g>

</svg>
