<?xml version="1.0" encoding="utf-8"?>
<!-- Generator: Adobe Illustrator 16.0.0, SVG Export Plug-In . SVG Version: 6.00 Build 0)  -->
<!DOCTYPE svg PUBLIC "-//W3C//DTD SVG 1.1//EN" "http://www.w3.org/Graphics/SVG/1.1/DTD/svg11.dtd">
<svg version="1.1"  xmlns="http://www.w3.org/2000/svg" xmlns:xlink="http://www.w3.org/1999/xlink" x="0px" y="0px"
	 width="120px" height="120px" viewBox="0 0 120 120" enable-background="new 0 0 120 120" xml:space="preserve">
<g id="online-ads">
<path fill="none" stroke="#ffffff" stroke-width="1.5" stroke-miterlimit="10" d="M109.98,78.25c0,2.762-2.238,5-5,5H16.949
	c-2.761,0-5-2.238-5-5V21.471c0-2.761,2.239-5,5-5h88.031c2.762,0,5,2.239,5,5V78.25z"/>
<polyline fill="none" stroke="#ffffff" stroke-width="1.5" stroke-miterlimit="10" points="42.367,87 48.367,92.25 61.852,92.25
	73.867,92.25 79.867,87 "/>
<path fill="none" stroke="#ffffff" stroke-width="1.5" stroke-miterlimit="10" d="M110.133,92.5c0,2.762-2.238,5-5,5H17.101
	c-2.761,0-5-2.238-5-5V92c0-2.762,2.239-5,5-5h88.032c2.762,0,5,2.238,5,5V92.5z"/>
<path fill="none" stroke="#ffffff" stroke-width="1.5" stroke-miterlimit="10" d="M80.326,34.382
	c1.137,4.493-1.779,9.107-6.512,10.304l-2.935,3.49l-1.869-3.803c-3.419-0.391-5.243-3.337-5.828-5.65
	c-1.137-4.492,1.778-9.105,6.511-10.304C74.428,27.22,79.188,29.89,80.326,34.382z"/>
<path fill="none" stroke="#ffffff" stroke-width="1.5" stroke-miterlimit="10" d="M97.246,49.369
	c-2.806,3.688-8.231,4.281-12.117,1.325l-4.557-0.121l1.811-3.832c-1.825-2.917-0.655-6.18,0.789-8.078
	c2.806-3.688,8.231-4.282,12.116-1.325C99.175,40.294,100.052,45.681,97.246,49.369z"/>
<path fill="none" stroke="#ffffff" stroke-width="1.5" stroke-miterlimit="10" d="M83.886,72.288
	c-4.558-0.838-7.539-5.41-6.655-10.213l-1.95-4.122l4.236-0.114c1.778-2.945,5.218-3.376,7.564-2.944
	c4.558,0.838,7.537,5.41,6.654,10.212C92.854,69.909,88.443,73.125,83.886,72.288z"/>
<g>
	<path fill="#ffffff" d="M46.367,60.611H41.92l-0.845,2.536h-2.698l4.583-12.31h2.351l4.608,12.31h-2.697L46.367,60.611z
		 M42.605,58.556h3.078l-1.547-4.608L42.605,58.556z"/>
	<path fill="#ffffff" d="M51.068,63.146v-12.31h3.789c1.082,0,2.05,0.244,2.904,0.731c0.854,0.487,1.521,1.181,2,2.08
		c0.479,0.898,0.718,1.92,0.718,3.065v0.566c0,1.145-0.235,2.163-0.706,3.052c-0.471,0.891-1.135,1.581-1.992,2.072
		c-0.856,0.49-1.823,0.738-2.9,0.743H51.068z M53.605,52.891v8.218h1.226c0.992,0,1.75-0.324,2.274-0.972
		c0.524-0.648,0.792-1.575,0.803-2.782v-0.65c0-1.251-0.259-2.2-0.778-2.846s-1.277-0.968-2.274-0.968H53.605z"/>
	<path fill="#ffffff" d="M68.706,59.917c0-0.479-0.169-0.847-0.507-1.104s-0.946-0.526-1.826-0.812
		c-0.879-0.284-1.575-0.565-2.088-0.841c-1.398-0.755-2.098-1.772-2.098-3.052c0-0.665,0.188-1.258,0.563-1.78
		s0.913-0.929,1.614-1.222c0.702-0.293,1.49-0.439,2.364-0.439c0.879,0,1.662,0.159,2.35,0.478c0.688,0.318,1.223,0.768,1.604,1.349
		c0.38,0.58,0.57,1.24,0.57,1.979h-2.537c0-0.563-0.178-1.002-0.532-1.315c-0.355-0.313-0.854-0.469-1.497-0.469
		c-0.619,0-1.102,0.131-1.444,0.393c-0.345,0.262-0.517,0.607-0.517,1.036c0,0.4,0.201,0.735,0.604,1.006
		c0.402,0.271,0.997,0.524,1.779,0.761c1.443,0.434,2.495,0.972,3.154,1.615c0.66,0.643,0.989,1.443,0.989,2.401
		c0,1.065-0.402,1.901-1.209,2.507c-0.807,0.606-1.892,0.909-3.255,0.909c-0.948,0-1.811-0.173-2.588-0.52
		c-0.778-0.347-1.371-0.821-1.78-1.425s-0.612-1.302-0.612-2.097h2.545c0,1.358,0.812,2.038,2.436,2.038
		c0.603,0,1.073-0.124,1.411-0.369C68.537,60.7,68.706,60.357,68.706,59.917z"/>
</g>
<g>
	<path fill="#ffffff" d="M70.793,40.292V35.86h-0.82v-1.08h0.82v-0.468c0-0.618,0.177-1.098,0.532-1.439
		c0.354-0.341,0.852-0.512,1.49-0.512c0.203,0,0.453,0.033,0.748,0.101l-0.015,1.132c-0.122-0.031-0.271-0.046-0.448-0.046
		c-0.554,0-0.831,0.262-0.831,0.786v0.447h1.096v1.08H72.27v4.432H70.793z"/>
</g>
<g>
	<path fill="#ffffff" d="M90.333,40.711v1.355h0.942v1.08h-0.942v2.751c0,0.204,0.039,0.35,0.117,0.438s0.228,0.132,0.448,0.132
		c0.163,0,0.308-0.012,0.434-0.036v1.116c-0.289,0.088-0.586,0.132-0.892,0.132c-1.032,0-1.559-0.521-1.579-1.564v-2.97h-0.805
		v-1.08h0.805v-1.355H90.333z"/>
</g>
<g>
	<path fill="#ffffff" d="M80.956,63.759c0-0.728,0.174-1.313,0.521-1.757c0.346-0.444,0.813-0.666,1.399-0.666
		c0.521,0,0.925,0.179,1.214,0.535l0.053-0.447h1.148v4.584c0,0.415-0.095,0.775-0.283,1.082c-0.188,0.308-0.453,0.541-0.795,0.701
		c-0.342,0.161-0.742,0.241-1.201,0.241c-0.347,0-0.687-0.068-1.016-0.207c-0.331-0.14-0.581-0.318-0.75-0.537l0.562-0.772
		c0.314,0.354,0.697,0.531,1.147,0.531c0.336,0,0.598-0.09,0.784-0.27c0.188-0.18,0.28-0.436,0.28-0.766v-0.254
		c-0.292,0.33-0.676,0.495-1.151,0.495c-0.57,0-1.031-0.222-1.384-0.668c-0.352-0.445-0.528-1.037-0.528-1.773V63.759z
		 M82.224,63.85c0,0.432,0.085,0.771,0.258,1.016s0.409,0.367,0.711,0.367c0.385,0,0.661-0.146,0.827-0.436v-2.004
		c-0.169-0.29-0.442-0.436-0.819-0.436c-0.304,0-0.542,0.126-0.716,0.374C82.31,62.98,82.224,63.354,82.224,63.85z"/>
	<path fill="#ffffff" d="M88.818,62.594h1.583v1.145h-1.583v1.788h-1.204v-1.788h-1.587v-1.145h1.587V60.88h1.204V62.594z"/>
</g>
<circle fill="#ffffff" cx="57.033" cy="66.989" r="1.259"/>
<circle fill="#ffffff" cx="60.894" cy="66.989" r="1.259"/>
<circle fill="#ffffff" cx="64.756" cy="66.989" r="1.259"/>
<g>
	<path fill="#ffffff" d="M30.954,45.591l1.304-2.821h1.411l-2.056,3.991v2.271h-1.312v-2.271l-2.056-3.991h1.415L30.954,45.591z"/>
	<path fill="#ffffff" d="M33.685,46.662c0-0.461,0.089-0.874,0.267-1.235c0.178-0.361,0.434-0.641,0.768-0.838
		s0.722-0.297,1.164-0.297c0.628,0,1.141,0.192,1.538,0.576c0.397,0.384,0.619,0.906,0.665,1.566l0.008,0.318
		c0,0.714-0.199,1.287-0.598,1.718c-0.398,0.432-0.934,0.647-1.604,0.647c-0.671,0-1.207-0.215-1.606-0.645
		s-0.601-1.015-0.601-1.755V46.662z M34.928,46.75c0,0.442,0.083,0.78,0.25,1.014s0.404,0.351,0.714,0.351
		c0.301,0,0.536-0.115,0.706-0.347c0.169-0.231,0.253-0.601,0.253-1.109c0-0.434-0.084-0.77-0.253-1.008
		c-0.169-0.238-0.408-0.358-0.714-0.358c-0.304,0-0.539,0.119-0.706,0.356S34.928,46.253,34.928,46.75z"/>
	<path fill="#ffffff" d="M41.646,48.559c-0.307,0.373-0.731,0.559-1.273,0.559c-0.499,0-0.879-0.144-1.142-0.43
		c-0.262-0.287-0.396-0.707-0.402-1.261v-3.049h1.243v3.01c0,0.485,0.221,0.728,0.662,0.728c0.421,0,0.711-0.146,0.869-0.439v-3.298
		h1.247v4.654h-1.17L41.646,48.559z"/>
	<path fill="#ffffff" d="M46.403,45.544c-0.169-0.023-0.318-0.035-0.447-0.035c-0.47,0-0.779,0.159-0.925,0.477v3.045h-1.243v-4.654
		h1.174l0.034,0.555c0.25-0.427,0.595-0.641,1.037-0.641c0.138,0,0.267,0.019,0.387,0.056L46.403,45.544z"/>
</g>
<line fill="none" stroke="#ffffff" stroke-width="1.5" stroke-miterlimit="10" x1="11.948" y1="21.25" x2="110" y2="21.25"/>
<line fill="none" stroke="#ffffff" stroke-width="1.5" stroke-miterlimit="10" x1="11.948" y1="77.25" x2="110" y2="77.25"/>
<circle fill="#ffffff" cx="102.5" cy="80" r="1"/>
<path fill="#ffffff" d="M70.992,18.875c0,0.345-0.28,0.625-0.625,0.625H51.563c-0.345,0-0.625-0.28-0.625-0.625l0,0
	c0-0.345,0.28-0.625,0.625-0.625h18.804C70.712,18.25,70.992,18.53,70.992,18.875L70.992,18.875z"/>
</g>
</svg>
